<?xml version="1.0" encoding="utf-8"?>
<!-- Generator: Adobe Illustrator 24.1.3, SVG Export Plug-In . SVG Version: 6.00 Build 0)  -->
<svg version="1.1" xmlns="http://www.w3.org/2000/svg" xmlns:xlink="http://www.w3.org/1999/xlink" x="0px" y="0px"
	 viewBox="0 0 561.6 374.4" style="enable-background:new 0 0 561.6 374.4;" xml:space="preserve">
<style type="text/css">
	.st0{opacity:0.45;fill-rule:evenodd;clip-rule:evenodd;}
	.st1{fill-rule:evenodd;clip-rule:evenodd;fill:#38485C;}
	.st2{fill-rule:evenodd;clip-rule:evenodd;fill:#F9BF3B;}
	.st3{fill-rule:evenodd;clip-rule:evenodd;fill:#F1892D;}
	.st4{fill-rule:evenodd;clip-rule:evenodd;fill:#29C5FF;}
	.st5{fill-rule:evenodd;clip-rule:evenodd;fill:#3EDC81;}
	.st6{fill-rule:evenodd;clip-rule:evenodd;fill:#1EBC61;}
	.st7{fill-rule:evenodd;clip-rule:evenodd;fill:#1ABC9C;}
	.st8{fill-rule:evenodd;clip-rule:evenodd;fill:none;}
	.st9{font-family:'MyriadPro-Regular';}
	.st10{font-size:12px;}
	.st11{fill:none;}
	.st12{fill:#38485C;}
	.st13{font-family:'Montserrat-ExtraBold';}
	.st14{font-size:31.9945px;}
	.st15{letter-spacing:7.56;}
</style>
<g id="Background">
	<g>
		<path class="st0" d="M269.91,349.24"/>
	</g>
</g>
<g id="Icon">
	<g>
		<path class="st1" d="M367.15,79.58c-20.55-2.19-44.72,2.38-62.8,7.81c-15.94-12.17-39.74-22.94-71.89-29.9h0
			c-5.8-1.17-11.77-2.14-17.92-2.87c-18.49-2.2-37.31-2.16-55.57,0.09v0c-6.1,0.75-12.08,1.74-17.92,2.96v0.01h-0.01
			c0.32,3.92,1.03,7.79,2.12,11.6l0,0c8.35,29.22,38.66,54.32,81.15,67.15c2.17-3.57,4.66-7.04,7.46-10.39
			c-37.84-11.52-64.31-34.05-71.11-59.91c16.17-2.15,33.27-2.36,50.52-0.31c4.4,0.52,8.7,1.19,12.9,1.97l0.02-0.04l2.47,0.54
			c23.19,5.02,45.36,13.07,61.65,24.77c-33.67,13.64-57.47,35.55-65.05,60.77l-0.01,0.01l0,0.02c-2.51,8.36-3.15,16.76-2.05,24.99h0
			v0l0,0c0.5,3.77,1.37,7.5,2.59,11.18c0,0.04,0,0.08,0.02,0.12l0.02,0c6.04,18.09,20.61,34.86,42.35,47.95l0.14,0.08l0.27,0.16
			l0.14,0.08c0.33,0.2,0.66,0.39,1,0.59c0.36,0.21,0.73,0.42,1.09,0.63c0.19,0.11,0.38,0.22,0.57,0.33c0.5,0.28,0.99,0.56,1.49,0.84
			l0.26,0.14c0.51,0.28,1.02,0.55,1.53,0.83l0.2,0.11l0.1,0.05c0.63,0.33,1.26,0.66,1.89,0.99l0.01,0l0.01,0.01l0.01,0l0.04,0.02
			l0.03,0.01l0.01,0l0.03,0.02l0.03,0.01l0.01,0l0.04,0.02l0.03,0.01l0.01,0.01l0.11,0.06l0.02,0.01c0.67,0.34,1.35,0.68,2.03,1.02
			l0,0l0.01,0c4.1-2.77,7.93-5.72,11.48-8.81l0,0c1.8-1.56,3.52-3.17,5.16-4.81l0.03-0.03c0.63-0.63,1.24-1.26,1.85-1.9l0.03-0.03
			c0.6-0.64,1.19-1.28,1.77-1.93l0.04-0.04c0.58-0.65,1.15-1.3,1.71-1.97l0.02-0.02c0.56-0.67,1.11-1.34,1.65-2.01l0.01-0.01
			c1.08-1.36,2.11-2.75,3.09-4.15l0-0.01c0.49-0.7,0.96-1.4,1.42-2.11l0.01-0.01c0.46-0.7,0.9-1.42,1.33-2.13l0.02-0.03
			c0.43-0.71,0.85-1.43,1.25-2.15l0.02-0.03c0.4-0.72,0.79-1.45,1.17-2.18l0.02-0.03c0.37-0.73,0.74-1.47,1.09-2.21l0.01-0.02
			c0.35-0.74,0.68-1.49,1-2.23l0.01-0.04c0.32-0.75,0.63-1.51,0.92-2.27l0-0.02c0.59-1.53,1.12-3.09,1.59-4.66
			c0.52-1.72,0.95-3.44,1.31-5.15c0.15-0.73,0.3-1.47,0.42-2.2c0.56-3.25,0.84-6.49,0.85-9.71l-0.01,0l-0.04-0.01l-0.05-0.01
			l-0.05-0.01l-0.05-0.01l-0.05-0.01l-0.05-0.01l-0.01,0l-0.04-0.01l-0.05-0.01l-0.05-0.01l-0.05-0.01l-0.05-0.01l-0.05-0.01
			l-0.01,0l-0.04-0.01l-0.05-0.01l-0.05-0.01l-0.05-0.01l-0.05-0.01l-0.05-0.01h-0.01l-0.05-0.01l-0.1-0.02l-0.05-0.01l-0.05-0.01
			l-0.05-0.02h0l-0.05-0.01l-0.05-0.01l-0.05-0.01l-0.1-0.03l-0.05-0.01h0l-0.05-0.01l-0.05-0.01l-0.05-0.01l-0.05-0.01l-0.05-0.01
			l-0.05-0.01l-0.05-0.01l-0.05-0.01l-0.05-0.01l-0.05-0.01l-0.05-0.01l-0.05-0.01l-0.05-0.01l-0.05-0.01l-0.05-0.01l-0.05-0.01
			l-0.05-0.01l-0.05-0.01l-0.05-0.01l-0.05-0.01l-0.05-0.01l-0.05-0.01l-0.05-0.01l-0.05-0.01h0l-0.05-0.01l-0.05-0.01l-0.05-0.01
			l-0.05-0.01l-0.05-0.01l-0.04-0.01l-0.01,0l-0.05-0.01l-0.05-0.01l-0.05-0.01l-0.05-0.01l-0.01,0l-0.08-0.02l-0.02,0l-0.11-0.03
			l-0.1-0.03l-0.06-0.02l-0.04-0.01l-0.11-0.03l-0.1-0.03l-0.05-0.01l-0.06-0.02l-0.11-0.03l-0.1-0.03l-0.1-0.03l-0.11-0.03
			l-0.1-0.03l-0.01,0l-0.09-0.03l-0.1-0.03l-0.21-0.06l-0.1-0.03l-0.08-0.03l-0.02-0.01l-0.1-0.03l-0.11-0.03l-0.06-0.02l-0.04-0.01
			l-0.1-0.03l-0.1-0.03l-0.04-0.01l-0.06-0.02l-0.1-0.03l-0.1-0.03l-0.03-0.01l-0.08-0.02l-0.1-0.03l-0.1-0.03l-0.01,0l-0.09-0.03
			l-0.1-0.03l-0.1-0.03l-0.01,0l-0.1-0.03l-0.1-0.03l-0.08-0.02l-0.02-0.01l-0.1-0.03l-0.1-0.03l-0.06-0.02l-0.04-0.01l-0.1-0.03
			l-0.1-0.03l-0.04-0.01l-0.06-0.02l-0.1-0.03l-0.1-0.03l-0.03-0.01l-0.08-0.02l-0.1-0.03l-0.1-0.03l-0.01,0l-0.09-0.03l-0.1-0.03
			l-0.1-0.03l-0.01,0l-0.1-0.03l-0.1-0.03l-0.08-0.02l-0.03-0.01l-0.1-0.03l-0.1-0.03l-0.06-0.02l-0.04-0.01l-0.1-0.03l-0.1-0.03
			l-0.04-0.01l-0.06-0.02l-0.1-0.03l-0.1-0.03l-0.02-0.01l-0.08-0.02l-0.1-0.03l-0.1-0.03h0l-0.1-0.03l0,0l-0.1-0.03l-0.09-0.03
			l-0.01,0l-0.1-0.03l-0.1-0.03l-0.1-0.03l-0.1-0.03l-0.1-0.03l-0.05-0.02l-0.05-0.02l-0.1-0.03l-0.1-0.03l-0.03-0.01l-0.07-0.02
			l-0.1-0.03l-0.1-0.03l-0.02,0l-0.08-0.03l-0.1-0.03l-0.1-0.03l0,0l-0.1-0.03l-0.1-0.03l-0.08-0.02l-0.02-0.01l-0.1-0.03l-0.1-0.03
			l-0.07-0.02l-0.03-0.01l-0.1-0.03l-0.1-0.03l-0.05-0.02l-0.05-0.02l-0.1-0.03l-0.1-0.03l-0.03-0.01l-0.07-0.02l-0.1-0.03
			l-0.1-0.03l-0.02-0.01l-0.18-0.06l-0.1-0.03l-0.1-0.03l-0.1-0.03l-0.08-0.03l-0.02,0l-0.1-0.03l-0.1-0.03l-0.06-0.02l-0.04-0.01
			l-0.1-0.03l-0.1-0.03l-0.05-0.02l-0.05-0.02l-0.1-0.03l-0.1-0.03l-0.03-0.01l-0.07-0.02l-0.1-0.03l-0.1-0.03l-0.01-0.01
			l-0.09-0.03l-0.1-0.03l-0.09-0.03l0,0l-0.28-0.09l-0.02-0.01l-0.1-0.03l-0.1-0.04l-0.06-0.02l-0.04-0.01l-0.39-0.14l-0.1-0.03
			l-0.03-0.01l-0.07-0.02l-0.2-0.07l-0.01,0l0,0l-0.28-0.1l-0.04-0.01l-0.36-0.13l-0.04-0.02l-0.11-0.04l-0.01,0l-0.04-0.01
			l-0.16-0.06l-0.04-0.02l-0.03-0.01l-0.01,0l-0.04-0.02l-0.04-0.01l-0.04-0.01l-0.04-0.01l-0.04-0.01l-0.04-0.01l-0.03-0.01
			l-0.01-0.01l-0.04-0.01l-0.04-0.01l-0.04-0.01l-0.04-0.01l-0.04-0.02l-0.04-0.01l-0.02-0.01l-0.02-0.01l-0.04-0.01l-0.04-0.01
			l-0.04-0.01l-0.04-0.01l-0.04-0.01l-0.04-0.02l-0.02-0.01l-0.02-0.01l-0.04-0.02l-0.04-0.01l-0.04-0.02l-0.04-0.01l-0.04-0.01
			l-0.04-0.01l-0.01-0.01l-0.35-0.13c-5.1,2.64-10.52,4.98-16.18,7.05c5.21,2.17,10.65,4.16,16.29,5.96
			c-0.38,2.59-0.95,5.19-1.73,7.8c-3.51,11.7-10.84,22.33-21.01,31.48c-16.73-10.88-28.49-24.6-33.6-39.59
			c55.91-8.54,88.87-34.42,87.56-62.15c-0.45-9.45-5.08-19.48-14.12-29.07c14.42-4.51,33.49-7.84,49.73-5.99
			c9.37,1.07,17.98,3.69,25.05,7.47c-12.33,1.98-24.18,4.85-35.34,8.51c-5.25,1.72-13.86,5.09-21.02,8.1
			c1.24,3.56,1.99,7.19,2.17,10.87c0.04,0.87,0.05,1.74,0.03,2.61c36.38-19.36,85.77-26.73,133.23-18.7
			c-15.3-7.41-35.88-10.79-55.45-11.97C402.37,88.11,385.72,81.56,367.15,79.58z M309.7,135.83c-7.07,22.11-37.85,35.38-70.72,40.83
			c-0.74-6.77-0.13-13.72,1.97-20.7c6.93-23.11,28.76-42.07,58.03-53.69c6.98,7.28,11.6,15.52,12.01,24.01
			C311.13,129.48,310.7,132.69,309.7,135.83z"/>
		<path class="st2" d="M160.66,66.13c6.8,25.86,33.28,48.39,71.11,59.91c4.71-6.77,24.29-22.72,46.68-30.29h0
			C224.81,61.52,160.66,66.13,160.66,66.13z"/>
		<path class="st3" d="M160.66,66.13c6.8,25.86,33.28,48.39,71.11,59.91c2.11-3.03,7.2-7.91,14.2-13.05
			C189.13,98.35,160.66,66.13,160.66,66.13z"/>
		<path class="st4" d="M320.22,99.85c6.91,4.71,12.33,11.58,13.16,15.1c7.17-3,44.62,1.71,21.02-8.1
			c-10.85-4.51,23.01-6.53,35.34-8.51C366.92,90.37,344.51,92.73,320.22,99.85z"/>
		<path class="st5" d="M249.66,188.92c8.08,24.03,25.47,38.75,25.47,38.75c10.17-9.16,17.5-19.79,21.01-31.48
			c0.78-2.61,1.36-5.21,1.73-7.8c-5.64-1.8-11.07-3.79-16.29-5.96C275.05,184.34,260.43,187.98,249.66,188.92z"/>
		<path class="st6" d="M269.67,185.49c18.17,20.35,5.46,42.19,5.46,42.19c10.17-9.16,17.5-19.79,21.01-31.48
			c0.78-2.61,1.36-5.21,1.73-7.8c-5.64-1.8-11.07-3.79-16.29-5.96C278.78,183.25,274.5,184.39,269.67,185.49z"/>
		<path class="st7" d="M302.87,106.75c-56.97,24.03-64.15,62.24-63.9,69.91c32.87-5.45,63.65-18.72,70.72-40.83
			c1-3.14,1.43-6.35,1.28-9.55C310.66,119.49,307.64,112.86,302.87,106.75z"/>
		<path class="st8" d="M302.87,106.75c-0.7,0.3-1.38,0.59-2.06,0.89c3.31,12.99,4.74,45.92-59.97,58.26
			c-1.52,5.03-1.92,8.84-1.86,10.76c32.87-5.45,63.65-18.72,70.72-40.83c1-3.14,1.43-6.35,1.28-9.55
			C310.66,119.49,307.64,112.86,302.87,106.75z"/>
		<path class="st2" d="M134.84,81.19L134.84,81.19c-120.84,33.76,31.82,57.54,76.15,70.93c1.01-3.33,2.3-6.64,3.84-9.89
			C126.71,130.71,64.58,109.24,134.84,81.19z"/>
		<path class="st5" d="M267.3,249.23l-0.1-0.05l-0.06-0.03l-0.29-0.15c-0.68-0.35-1.36-0.7-2.03-1.06l-0.3-0.16
			c-0.56-0.3-1.12-0.6-1.68-0.91l-0.26-0.14c-0.55-0.3-1.09-0.61-1.63-0.92c-0.21-0.12-0.41-0.24-0.62-0.36
			c-0.4-0.22-0.79-0.45-1.18-0.68c-0.37-0.22-0.74-0.44-1.11-0.66l-0.56-0.34c-27.52-16.5-43.81-37.5-48.23-60.74l-1-7.83
			c-0.14-2.19-0.17-4.39-0.09-6.58c-16.86,39.96,18.74,74.52,70.56,86.25l-9.22-4.55C268.77,249.97,268.03,249.6,267.3,249.23z"/>
		<path class="st7" d="M359.91,211.76c-0.15,1.53-20.58-18.35-20.84-16.82c-0.14,0.8-0.29,1.59-0.45,2.39
			c-0.39,1.87,6.93,28.5,6.38,30.36c-0.5,1.66-8.89-21.45-9.5-19.8l-12.27,21.24c-0.32,0.85,11.59-19.48,11.22-18.65l0,0
			c-0.35,0.82-0.71,1.64-1.1,2.45l-0.01,0.02c-0.38,0.8-0.77,1.6-1.18,2.39l-0.02,0.03c-0.4,0.77-0.81,1.54-1.24,2.3l-0.02,0.03
			c-0.44,0.8-0.91,1.59-1.39,2.39l-0.33,0.66c-0.31,0.62-0.7,1.2-1.16,1.72l0,0c-0.51,0.78-1.02,1.55-1.56,2.32l19.96,9.4
			c-1.05,1.48-22.09-6.44-23.18-5.06l-0.1,0.13c-0.57,0.72-1.16,1.44-1.76,2.15l-0.02,0.02c-0.6,0.73-1.24,1.45-1.88,2.17
			l-0.03,0.04c-0.63,0.71-1.27,1.41-1.94,2.1l-0.03,0.03c-0.66,0.7-1.34,1.4-2.03,2.08l-0.03,0.03c-1.78,1.76-3.63,3.5-5.57,5.19
			l-0.15,0.13c-1.53,1.36-3.14,2.69-4.82,3.98l-0.04,0.03c12.29-4.45,67.16-61.24,73.17-95.08c-3.65,28.07-32.42,72.33-38.05,35.07
			C339.94,188.06,360.08,210.53,359.91,211.76z"/>
	</g>
	<text transform="matrix(1 0 0 1 234 326)" class="st9 st10">Aerogeotech</text>
	<rect x="468.8" y="90.67" class="st11" width="20.2" height="19.06"/>
	<text transform="matrix(1 0 0 1 435 439)" class="st9 st10">Lorem im</text>
	<polygon class="st11" points="538,437 428,437 428,437 538,437 	"/>
	<rect x="415" y="433" class="st11" width="79" height="3"/>
</g>
<g id="Logotext">
	<g>
		<text transform="matrix(1.5872 0 0 1 134.8361 291.7959)" class="st12 st13 st14 st15">Weshke</text>
	</g>
</g>
</svg>
